<svg width="2545" height="605" viewBox="0 0 2545 605" fill="none" xmlns="http://www.w3.org/2000/svg">
<path d="M222.048 60.7206C236.329 36.2632 271.671 36.2632 285.952 60.7206L475.501 385.343C489.904 410.009 472.113 441 443.55 441H64.4503C35.887 441 18.0957 410.009 32.4985 385.343L222.048 60.7206Z" fill="white"/>
<path d="M508 220.5C508 98.9973 606.497 0 728 0H809C829.987 0 847 17.0132 847 38V403C847 423.987 829.987 441 809 441H728C606.497 441 508 342.003 508 220.5Z" fill="white"/>
<path d="M917 131C917 61.9644 972.964 6 1042 6H1180C1249.04 6 1305 61.9644 1305 131V317C1305 386.036 1249.04 442 1180 442H1042C972.964 442 917 386.036 917 317V131Z" fill="white"/>
<path d="M1375 43C1375 22.5655 1391.57 6 1412 6L1633 6C1693.75 6 1743 55.2487 1743 116C1743 176.751 1693.75 226 1633 226L1375 226V43Z" fill="white"/>
<path d="M1813 29C1813 13.536 1825.54 1 1841 1H1917C1932.46 1 1945 13.536 1945 29V309.089L2107.06 309.439C2122.5 309.472 2135 321.998 2135 337.439V408.999C2135 424.463 2122.46 436.999 2107 436.999L1841 437C1825.54 437 1813 424.464 1813 409V29Z" fill="white"/>
<path d="M2265.81 245.386L2108.07 45.3375C2093.58 26.9734 2106.67 3.39994e-06 2130.05 2.60632e-06L2206.86 0C2215.36 0 2223.41 3.86717 2228.72 10.5102L2323.29 128.737L2417.85 10.5102C2423.17 3.86717 2431.21 0 2439.72 0L2516.52 2.60632e-06C2539.91 3.39994e-06 2552.99 26.9734 2538.51 45.3375L2383.81 245.386V408.5C2383.81 423.964 2371.28 436.5 2355.81 436.5L2293.81 436.5C2278.35 436.5 2265.81 423.964 2265.81 408.5V245.386Z" fill="white"/>
<path d="M1375 218L1633 218C1693.75 218 1743 267.249 1743 328C1743 388.751 1693.75 438 1633 438H1405C1388.43 438 1375 424.569 1375 408V218Z" fill="white"/>
<path d="M1764.7 532.808C1767.39 532.808 1769.5 534.92 1769.5 537.512C1769.5 540.2 1767.39 542.312 1764.7 542.312H1756.25V576.2C1756.25 578.888 1754.14 581 1751.45 581C1748.86 581 1746.75 578.888 1746.75 576.2V542.312H1741.47C1738.87 542.312 1736.76 540.2 1736.76 537.512C1736.76 534.92 1738.87 532.808 1741.47 532.808H1746.75C1746.65 525.992 1749.15 519.752 1753.75 515.144C1756.35 512.552 1759.32 510.632 1762.78 509.48C1765.18 508.52 1767.96 509.864 1768.83 512.36C1769.69 514.76 1768.44 517.544 1765.95 518.408C1763.93 519.08 1762.11 520.232 1760.47 521.864C1757.59 524.744 1756.25 528.488 1756.25 532.808H1764.7ZM1793.09 532.904C1795.78 532.904 1797.89 535.016 1797.89 537.608C1797.89 540.2 1795.78 542.408 1793.09 542.408C1785.03 542.408 1778.5 548.936 1778.5 557V576.296C1778.5 578.888 1776.39 581.096 1773.8 581.096C1771.11 581.096 1769 578.888 1769 576.296V557C1769 543.656 1779.84 532.904 1793.09 532.904ZM1821.69 581C1808.44 581 1797.59 570.152 1797.59 556.904C1797.59 543.56 1808.44 532.808 1821.69 532.808C1835.03 532.808 1845.78 543.56 1845.78 556.904C1845.78 570.152 1835.03 581 1821.69 581ZM1821.69 542.312C1813.62 542.312 1807.09 548.84 1807.09 556.904C1807.09 564.872 1813.62 571.496 1821.69 571.496C1829.75 571.496 1836.28 564.872 1836.28 556.904C1836.28 548.84 1829.75 542.312 1821.69 542.312ZM1918.81 552.2C1918.81 552.392 1918.81 552.488 1918.71 552.584C1918.81 552.776 1918.81 552.872 1918.81 553.064V576.392C1918.81 579.08 1916.6 581.192 1914.01 581.192C1911.42 581.192 1909.31 579.08 1909.31 576.392V553.064C1909.31 552.872 1909.31 552.776 1909.31 552.584C1909.31 552.488 1909.31 552.392 1909.31 552.2C1909.31 546.824 1904.89 542.504 1899.51 542.504C1894.14 542.504 1889.72 546.824 1889.72 552.2V576.392C1889.72 579.08 1887.61 581.192 1885.02 581.192C1882.43 581.192 1880.22 579.08 1880.22 576.392V552.2C1880.22 546.824 1875.9 542.504 1870.52 542.504C1865.15 542.504 1860.73 546.824 1860.73 552.2V576.392C1860.73 579.08 1858.62 581.192 1856.03 581.192C1853.34 581.192 1851.23 579.08 1851.23 576.392V552.2C1851.23 541.64 1859.87 533 1870.52 533C1876.28 533 1881.47 535.496 1885.02 539.624C1888.57 535.496 1893.75 533 1899.51 533C1910.17 533 1918.81 541.64 1918.81 552.2ZM2031.82 513.8C2034.32 514.664 2035.57 517.448 2034.61 519.944L2012.43 577.832C2011.66 579.752 2009.84 581 2007.92 581H2007.82C2005.81 581 2003.98 579.656 2003.31 577.832L1992.85 550.856L1982.19 577.832C1981.42 579.752 1979.6 581 1977.68 581H1977.58C1975.57 581 1973.74 579.656 1973.07 577.832L1951.57 520.328C1950.61 517.832 1951.86 515.048 1954.35 514.184C1956.85 513.224 1959.54 514.472 1960.5 516.968L1977.68 562.856L1988.34 535.88C1989.1 533.96 1990.93 532.712 1992.85 532.808C1994.86 532.712 1996.69 533.96 1997.36 535.88L2007.92 562.856L2025.68 516.584C2026.64 514.088 2029.33 512.84 2031.82 513.8ZM2054.56 581C2041.31 581 2030.46 570.152 2030.46 556.904C2030.46 543.56 2041.31 532.808 2054.56 532.808C2067.9 532.808 2078.66 543.56 2078.66 556.904C2078.66 570.152 2067.9 581 2054.56 581ZM2054.56 542.312C2046.5 542.312 2039.97 548.84 2039.97 556.904C2039.97 564.872 2046.5 571.496 2054.56 571.496C2062.62 571.496 2069.15 564.872 2069.15 556.904C2069.15 548.84 2062.62 542.312 2054.56 542.312ZM2108.37 581C2095.13 581 2084.28 570.152 2084.28 556.904C2084.28 543.56 2095.13 532.808 2108.37 532.808C2121.72 532.808 2132.47 543.56 2132.47 556.904C2132.47 570.152 2121.72 581 2108.37 581ZM2108.37 542.312C2100.31 542.312 2093.78 548.84 2093.78 556.904C2093.78 564.872 2100.31 571.496 2108.37 571.496C2116.44 571.496 2122.97 564.872 2122.97 556.904C2122.97 548.84 2116.44 542.312 2108.37 542.312ZM2172.55 571.496C2175.14 571.496 2177.25 573.608 2177.25 576.2C2177.25 578.792 2175.14 581 2172.55 581H2142.69C2140.87 581 2139.14 579.944 2138.37 578.312C2137.51 576.584 2137.7 574.664 2138.85 573.224L2162.85 542.312H2142.5C2139.91 542.312 2137.8 540.104 2137.8 537.512C2137.8 534.92 2139.91 532.808 2142.5 532.808H2172.36C2174.18 532.808 2175.91 533.768 2176.68 535.496C2177.54 537.128 2177.35 539.048 2176.2 540.488L2152.2 571.496H2172.55ZM2216.6 533.192C2219.29 533.192 2221.4 535.304 2221.4 537.896V585.224C2221.4 596.072 2212.47 605 2201.53 605C2193.95 605 2187.13 600.68 2183.77 593.864C2182.62 591.56 2183.58 588.68 2185.98 587.528C2188.28 586.376 2191.16 587.432 2192.22 589.736C2194.04 593.288 2197.59 595.496 2201.53 595.496C2207.29 595.496 2211.9 590.888 2211.9 585.224V578.312C2209.02 580.04 2205.66 581 2202.01 581C2191.45 581 2182.81 572.456 2182.71 561.896C2182.71 561.8 2182.71 561.8 2182.71 561.8V537.896C2182.71 535.304 2184.83 533.192 2187.42 533.192C2190.01 533.192 2192.12 535.304 2192.12 537.896V561.704C2192.12 567.176 2196.63 571.592 2202.01 571.592C2207.48 571.592 2211.9 567.176 2211.9 561.704V537.896C2211.9 535.304 2214.01 533.192 2216.6 533.192ZM2246.42 542.6C2256.98 542.6 2265.62 551.24 2265.62 561.8C2265.62 572.456 2256.98 581.096 2246.42 581.096C2235.86 581.096 2227.22 572.456 2227.22 561.8C2227.22 559.208 2229.33 557 2232.02 557C2234.7 557 2236.82 559.208 2236.82 561.8C2236.82 567.176 2241.14 571.496 2246.42 571.496C2251.7 571.496 2256.02 567.176 2256.02 561.8C2256.02 556.52 2251.7 552.2 2246.42 552.2C2235.86 552.2 2227.22 543.656 2227.22 533C2227.22 522.44 2235.86 513.8 2246.42 513.8C2256.98 513.8 2265.62 522.44 2265.62 533C2265.62 535.688 2263.5 537.8 2260.82 537.8C2258.22 537.8 2256.02 535.688 2256.02 533C2256.02 527.72 2251.7 523.4 2246.42 523.4C2241.14 523.4 2236.82 527.72 2236.82 533C2236.82 538.28 2241.14 542.6 2246.42 542.6ZM2298.15 532.904C2300.84 532.904 2302.95 535.016 2302.95 537.608C2302.95 540.2 2300.84 542.408 2298.15 542.408H2291.33V576.296C2291.33 578.888 2289.22 581.096 2286.53 581.096C2283.94 581.096 2281.83 578.888 2281.83 576.296V542.408H2274.92C2272.32 542.408 2270.21 540.2 2270.21 537.608C2270.21 535.016 2272.32 532.904 2274.92 532.904H2281.83V513.704C2281.83 511.112 2283.94 509 2286.53 509C2289.22 509 2291.33 511.112 2291.33 513.704V532.904H2298.15ZM2343 532.904C2345.59 532.904 2347.7 535.016 2347.7 537.608V561.704V561.8C2347.6 572.456 2338.96 581.096 2328.21 581.096C2317.56 581.096 2308.92 572.456 2308.82 561.8V561.704V537.608C2308.82 535.016 2310.93 532.904 2313.52 532.904C2316.21 532.904 2318.32 535.016 2318.32 537.608V561.608C2318.32 567.08 2322.74 571.592 2328.21 571.592C2333.78 571.592 2338.2 567.08 2338.2 561.608V537.608C2338.2 535.016 2340.31 532.904 2343 532.904ZM2377.34 532.616C2382.82 532.616 2387.9 534.44 2391.94 537.512V513.608C2391.94 511.016 2394.05 508.904 2396.64 508.904C2399.33 508.904 2401.44 511.016 2401.44 513.608V556.616V556.712C2401.44 569.96 2390.59 580.808 2377.34 580.808C2364 580.808 2353.25 569.96 2353.25 556.712C2353.25 543.368 2364 532.616 2377.34 532.616ZM2377.34 571.304C2385.41 571.304 2391.94 564.776 2391.94 556.712V556.616C2391.94 548.648 2385.41 542.12 2377.34 542.12C2369.28 542.12 2362.75 548.648 2362.75 556.712C2362.75 564.68 2369.28 571.304 2377.34 571.304ZM2412.15 581.096C2409.46 581.096 2407.35 578.984 2407.35 576.296V537.608C2407.35 535.016 2409.46 532.904 2412.15 532.904C2414.74 532.904 2416.86 535.016 2416.86 537.608V576.296C2416.86 578.984 2414.74 581.096 2412.15 581.096ZM2412.15 523.304C2410.9 523.304 2409.66 522.824 2408.79 521.96C2407.93 521.096 2407.35 519.848 2407.35 518.6C2407.35 517.352 2407.93 516.104 2408.79 515.24C2409.66 514.376 2410.9 513.8 2412.15 513.8C2413.4 513.8 2414.65 514.376 2415.51 515.24C2416.38 516.104 2416.86 517.352 2416.86 518.6C2416.86 519.848 2416.38 521.096 2415.51 521.96C2414.65 522.824 2413.4 523.304 2412.15 523.304ZM2446.44 581C2433.19 581 2422.34 570.152 2422.34 556.904C2422.34 543.56 2433.19 532.808 2446.44 532.808C2459.78 532.808 2470.53 543.56 2470.53 556.904C2470.53 570.152 2459.78 581 2446.44 581ZM2446.44 542.312C2438.37 542.312 2431.84 548.84 2431.84 556.904C2431.84 564.872 2438.37 571.496 2446.44 571.496C2454.5 571.496 2461.03 564.872 2461.03 556.904C2461.03 548.84 2454.5 542.312 2446.44 542.312Z" fill="white"/>
</svg>
